<svg viewBox="0 0 1282 193" fill="none" xmlns="http://www.w3.org/2000/svg">
  <g opacity="0.6">
    <path
      d="M1204.03 189.495H1169.89L1166.49 162.797L1151.61 158.863V158.849C1151.49 158.615 1151.3 158.424 1151.07 158.307L1131.88 126.482L1108.33 98.6531C1108.3 98.6238 1108.27 98.6091 1108.24 98.5945L1108.23 98.6091C1108.14 98.5067 1108.04 98.4335 1107.92 98.3749C1107.89 98.3603 1107.85 98.3603 1107.83 98.3456C1107.72 98.3017 1107.61 98.2871 1107.5 98.2725C1107.47 98.2725 1107.46 98.2578 1107.43 98.2578C1107.34 98.2871 1107.23 98.3164 1107.12 98.3164C1107.09 98.331 1107.07 98.3456 1107.04 98.3603C1106.89 98.4335 1106.77 98.5213 1106.65 98.6384C1106.62 98.6677 1106.59 98.6823 1106.57 98.697L1085.47 112.56L1068.39 135.419C1068.31 135.477 1068.24 135.536 1068.17 135.594L1065.67 138.303L1029.09 132.022C1029.08 132.007 1029.05 132.007 1029.03 131.993L1029.04 132.007C1028.85 131.861 1028.63 131.773 1028.4 131.773C1028.38 131.773 1028.35 131.788 1028.32 131.788V131.773C1028.09 131.758 1027.88 131.846 1027.71 132.007C1027.7 132.022 1027.67 132.007 1027.66 132.022L1016.23 141.918L1009.47 144.362C1009.34 144.406 1009.22 144.494 1009.11 144.582L1005.49 144.305L990.038 126.299H990.052C990.011 126.269 989.984 126.24 989.944 126.225C989.863 126.138 989.768 126.064 989.673 126.02L989.619 126.006C989.484 125.947 989.349 125.918 989.2 125.918H989.187C989.078 125.903 988.97 125.918 988.862 125.947C988.835 125.962 988.808 125.991 988.781 125.991L988.767 126.006C988.727 126.02 988.7 126.05 988.659 126.064C988.564 126.123 988.483 126.181 988.402 126.255C988.389 126.269 988.362 126.269 988.348 126.299L960.451 170.106L947.7 165.722C947.524 165.809 947.375 165.956 947.267 166.132L932.622 189.481L910.919 189.495C910.283 189.495 909.77 190.052 909.77 190.74C909.77 191.442 910.283 191.999 910.919 191.999H958.937C959.572 191.999 960.086 191.442 960.086 190.74C960.086 190.052 959.572 189.495 958.937 189.495H935.421L949.025 167.815L961.695 172.258L961.682 172.243C961.803 172.185 961.912 172.097 962.006 171.98L988.686 129.593L991.269 138.625C991.323 138.815 991.431 138.991 991.553 139.137L1000.59 148.916L1003.55 157.583L1006.54 167.815H1006.55C1006.63 168.079 1006.78 168.313 1007 168.474L1022.02 179.688L1026.32 189.496H989.198C988.563 189.496 988.035 190.052 988.035 190.74C988.035 191.443 988.563 191.999 989.198 191.999H1204.03C1204.67 191.999 1205.18 191.443 1205.18 190.74C1205.18 190.052 1204.67 189.495 1204.03 189.495ZM1130.72 128.677L1149.77 160.429L1164.55 164.129H1164.53C1164.59 164.217 1164.64 164.305 1164.7 164.378L1166.72 189.495H1143.71L1138.31 170.281C1138.23 170.135 1138.13 170.003 1138.01 169.901L1121.96 133.83L1116.04 125.661L1110.06 104.434L1130.33 128.369C1130.44 128.501 1130.57 128.604 1130.72 128.677ZM1069.73 137.482L1086.88 114.594L1086.86 114.579C1086.97 114.506 1087.06 114.418 1087.15 114.331L1106.99 102.107L1113.89 126.627C1113.93 126.774 1113.99 126.906 1114.08 127.023L1120.21 135.499V135.513C1120.28 135.586 1120.35 135.66 1120.42 135.718L1136.4 171.716L1141.05 189.48L1053.79 189.495L1039.7 170.727L1039.71 170.713C1039.6 170.581 1039.47 170.464 1039.32 170.391L1035.56 168.356L1054.71 153.717L1056.61 151.653L1069.73 137.482ZM1056.22 148.579L1040.14 148.797V148.782C1040.1 148.709 1040.08 148.636 1040.02 148.563L1033.15 144.011L1030.81 136.75L1064.04 140.088L1056.22 148.579ZM1010.42 146.675L1017.17 144.245L1017.16 144.23C1017.29 144.186 1017.41 144.113 1017.52 144.025L1027.83 135.096L1031.02 144.991C1031.06 145.094 1031.1 145.196 1031.15 145.284L1038.05 149.865L1054.44 150.496L1053.23 151.799L1033.22 167.068L1017.95 158.797L1007.09 146.134L1010.42 146.675ZM1023.98 178.309C1023.89 178.104 1023.75 177.943 1023.59 177.811L1008.65 166.642L1005.75 156.775L1002.69 147.787C1002.63 147.611 1002.54 147.465 1002.41 147.333L993.409 137.583L991.826 132.035L1016.4 160.683C1016.48 160.8 1016.6 160.888 1016.72 160.947L1038.06 172.497L1050.8 189.478L1028.88 189.493L1023.98 178.309Z"
      fill="#E5E5E5"/>
    <path
      d="M1440.85 189.498H1406.71L1388.71 168.447L1378 147.572V147.557C1377.88 147.323 1377.69 147.133 1377.46 147.016L1358.27 137.779L1334.71 109.95C1334.69 109.921 1334.66 109.906 1334.63 109.891L1334.62 109.906C1334.52 109.804 1334.43 109.73 1334.31 109.672C1334.28 109.657 1334.24 109.657 1334.21 109.643C1334.1 109.599 1334 109.584 1333.89 109.569C1333.86 109.569 1333.85 109.555 1333.82 109.555C1333.73 109.584 1333.62 109.613 1333.51 109.613C1333.48 109.628 1333.46 109.643 1333.43 109.657C1333.28 109.73 1333.16 109.818 1333.04 109.935C1333.01 109.965 1332.98 109.979 1332.96 109.994L1322.29 123.857L1305.21 135.422C1305.13 135.48 1305.06 135.539 1304.99 135.597L1302.49 138.305L1278.43 117.342C1278.42 117.328 1278.39 117.328 1278.37 117.313L1278.38 117.328C1278.19 117.181 1277.97 117.093 1277.74 117.093C1277.72 117.093 1277.69 117.108 1277.66 117.108V117.093C1277.43 117.079 1277.22 117.167 1277.05 117.328C1277.04 117.342 1277.01 117.328 1277 117.342L1265.57 127.238L1258.81 140.977C1258.68 141.021 1258.56 141.109 1258.45 141.196L1242.32 144.307L1226.86 126.301H1226.87C1226.83 126.272 1226.81 126.243 1226.76 126.228C1226.68 126.14 1226.59 126.067 1226.49 126.023L1226.44 126.009C1226.3 125.95 1226.17 125.921 1226.02 125.921H1226.01C1225.9 125.906 1225.79 125.921 1225.68 125.95C1225.66 125.965 1225.63 125.994 1225.6 125.994L1225.59 126.009C1225.55 126.023 1225.52 126.052 1225.48 126.067C1225.39 126.126 1225.3 126.184 1225.22 126.257C1225.21 126.272 1225.18 126.272 1225.17 126.301L1197.27 158.815L1184.52 165.724C1184.34 165.812 1184.2 165.959 1184.09 166.134L1169.44 189.484L1147.74 189.498C1147.1 189.498 1146.59 190.055 1146.59 190.743C1146.59 191.445 1147.1 192.001 1147.74 192.001H1195.76C1196.39 192.001 1196.91 191.445 1196.91 190.743C1196.91 190.055 1196.39 189.498 1195.76 189.498H1172.24L1185.85 167.818L1198.52 160.967L1198.5 160.952C1198.62 160.894 1198.73 160.806 1198.83 160.689L1225.51 129.595L1228.09 138.628C1228.14 138.818 1228.25 138.994 1228.37 139.14L1237.41 148.919L1240.37 157.585L1243.36 167.818H1243.37C1243.45 168.082 1243.6 168.316 1243.82 168.477L1258.84 179.69L1263.14 189.499H1226.02C1225.38 189.499 1224.86 190.055 1224.86 190.743C1224.86 191.446 1225.38 192.002 1226.02 192.002H1440.85C1441.49 192.002 1442 191.446 1442 190.743C1442 190.055 1441.49 189.498 1440.85 189.498ZM1357.11 139.974L1376.16 149.138L1386.76 169.779H1386.75C1386.8 169.867 1386.86 169.954 1386.91 170.028L1403.54 189.497H1380.53L1364.69 158.99C1364.61 158.843 1364.52 158.712 1364.4 158.609L1348.35 145.127L1342.42 136.958L1336.45 115.731L1356.72 139.666C1356.82 139.798 1356.96 139.901 1357.11 139.974ZM1306.55 137.485L1323.7 125.891L1323.68 125.876C1323.79 125.803 1323.89 125.715 1323.97 125.627L1333.38 113.404L1340.27 137.924C1340.32 138.071 1340.38 138.203 1340.46 138.32L1346.6 146.796V146.81C1346.67 146.883 1346.74 146.957 1346.81 147.015L1362.79 160.424L1377.87 189.483L1290.61 189.497L1276.52 170.73L1276.53 170.716C1276.42 170.584 1276.29 170.467 1276.14 170.393L1272.38 168.359L1291.53 153.72L1293.43 151.656L1306.55 137.485ZM1293.04 148.581L1290.53 142.023V142.009C1290.49 141.935 1290.46 141.862 1290.4 141.789L1282.49 129.331L1280.15 122.07L1300.86 140.091L1293.04 148.581ZM1259.76 143.289L1266.51 129.565L1266.5 129.551C1266.63 129.507 1266.75 129.434 1266.86 129.346L1277.17 120.416L1280.36 130.312C1280.4 130.414 1280.44 130.517 1280.49 130.605L1288.43 143.092L1291.26 150.499L1290.05 151.802L1270.04 167.07L1254.77 158.799L1243.91 146.137L1259.76 143.289ZM1260.8 178.312C1260.71 178.107 1260.57 177.946 1260.41 177.814L1245.47 166.644L1242.58 156.778L1239.51 147.79C1239.45 147.614 1239.36 147.467 1239.24 147.336L1230.23 137.586L1228.65 132.038L1253.22 160.686C1253.3 160.803 1253.42 160.891 1253.54 160.95L1274.88 172.5L1287.62 189.481L1265.7 189.495L1260.8 178.312Z"
      fill="#E5E5E5"/>
    <path
      d="M1218.54 189.496H1204.72C1204.09 189.496 1203.56 190.052 1203.56 190.74C1203.56 191.443 1204.09 191.999 1204.72 191.999H1218.54C1219.18 191.999 1219.71 191.443 1219.71 190.74C1219.71 190.052 1219.18 189.496 1218.54 189.496Z"
      fill="#E5E5E5"/>
    <path d="M860.997 81.5938H864.257V97.4755H860.997V81.5938Z" fill="#E5E5E5"/>
    <path d="M867.518 81.5938H870.778V97.4755H867.518V81.5938Z" fill="#E5E5E5"/>
    <path d="M874.038 81.5938H877.298V97.4755H874.038V81.5938Z" fill="#E5E5E5"/>
    <path d="M880.558 81.5938H883.818V97.4755H880.558V81.5938Z" fill="#E5E5E5"/>
    <path d="M860.997 101.004H864.257V116.886H860.997V101.004Z" fill="#E5E5E5"/>
    <path d="M867.518 101.004H870.778V116.886H867.518V101.004Z" fill="#E5E5E5"/>
    <path d="M874.038 101.004H877.298V116.886H874.038V101.004Z" fill="#E5E5E5"/>
    <path d="M880.558 101.004H883.818V116.886H880.558V101.004Z" fill="#E5E5E5"/>
    <path
      d="M931.092 55.1214H927.832V39.2397C927.832 38.2647 927.102 37.4749 926.202 37.4749H921.311V28.6514C921.311 27.6764 920.582 26.8867 919.681 26.8867H900.12C899.219 26.8867 898.49 27.6764 898.49 28.6514V37.4749H893.6C892.699 37.4749 891.969 38.2647 891.969 39.2397V55.1214H888.709C887.809 55.1214 887.079 55.9111 887.079 56.8861V72.7679H856.107C855.206 72.7679 854.477 73.5576 854.477 74.5326V104.532H830.025C829.124 104.532 828.395 105.322 828.395 106.297V190.235C828.395 191.21 829.124 192 830.025 192H931.091C931.991 192 932.721 191.21 932.721 190.235V56.885C932.721 55.91 931.991 55.1203 931.091 55.1203L931.092 55.1214ZM831.656 108.063H854.478V188.472H847.957V176.118C847.957 175.143 847.228 174.354 846.327 174.354H839.807C838.906 174.354 838.177 175.143 838.177 176.118V188.472H831.656V108.063ZM841.437 188.472V177.884H844.697V188.472H841.437ZM857.738 76.2979H887.08V188.472H877.299V165.684C877.299 164.709 876.57 163.919 875.669 163.919H869.149C868.248 163.919 867.518 164.709 867.518 165.684V188.472H857.738V76.2979ZM870.779 188.472V167.449H874.039V188.472H870.779ZM908.271 188.472H905.011V174.354H908.271V188.472ZM929.462 188.472H918.051V181.413H914.791V188.472H911.531V174.354H914.791V187.884H918.051V172.589C918.051 171.614 917.322 170.825 916.421 170.825H903.38C902.48 170.825 901.75 171.614 901.75 172.589V188.471H890.339V58.6503H893.599C894.5 58.6503 895.229 57.8606 895.229 56.8856V41.0038H900.119C901.02 41.0038 901.75 40.2141 901.75 39.2391V30.4156H918.051V39.2391C918.051 40.2141 918.78 41.0038 919.681 41.0038H924.571V56.8856C924.571 57.8606 925.3 58.6503 926.201 58.6503H929.461L929.462 188.472Z"
      fill="#DCDCDC"/>
    <path d="M905.01 33.9453H908.27V37.4747H905.01V33.9453Z" fill="#E5E5E5"/>
    <path d="M911.531 33.9453H914.791V37.4747H911.531V33.9453Z" fill="#E5E5E5"/>
    <path d="M898.49 44.5352H901.75V55.1234H898.49V44.5352Z" fill="#E5E5E5"/>
    <path d="M905.01 44.5352H908.27V55.1234H905.01V44.5352Z" fill="#E5E5E5"/>
    <path d="M911.531 44.5352H914.791V55.1234H911.531V44.5352Z" fill="#E5E5E5"/>
    <path d="M918.051 44.5352H921.311V55.1234H918.051V44.5352Z" fill="#E5E5E5"/>
    <path d="M895.229 62.1797H898.489V83.3562H895.229V62.1797Z" fill="#E5E5E5"/>
    <path d="M901.749 62.1797H905.009V83.3562H901.749V62.1797Z" fill="#E5E5E5"/>
    <path d="M908.27 62.1797H911.53V83.3562H908.27V62.1797Z" fill="#E5E5E5"/>
    <path d="M914.79 62.1797H918.05V83.3562H914.79V62.1797Z" fill="#E5E5E5"/>
    <path d="M921.31 62.1797H924.57V83.3562H921.31V62.1797Z" fill="#E5E5E5"/>
    <path d="M895.229 90.4141H898.489V111.591H895.229V90.4141Z" fill="#E5E5E5"/>
    <path d="M901.749 90.4141H905.009V111.591H901.749V90.4141Z" fill="#E5E5E5"/>
    <path d="M908.27 90.4141H911.53V111.591H908.27V90.4141Z" fill="#E5E5E5"/>
    <path d="M914.79 90.4141H918.05V111.591H914.79V90.4141Z" fill="#E5E5E5"/>
    <path d="M921.31 90.4141H924.57V111.591H921.31V90.4141Z" fill="#E5E5E5"/>
    <path d="M834.916 111.594H838.176V118.653H834.916V111.594Z" fill="#E5E5E5"/>
    <path d="M841.436 111.594H844.696V118.653H841.436V111.594Z" fill="#E5E5E5"/>
    <path d="M847.956 111.594H851.216V118.653H847.956V111.594Z" fill="#E5E5E5"/>
    <path
      d="M293.261 189.498H259.117L241.118 168.447L230.408 147.572V147.557C230.287 147.323 230.097 147.133 229.868 147.016L210.679 137.779L187.123 109.95C187.096 109.921 187.069 109.906 187.042 109.891L187.029 109.906C186.934 109.804 186.839 109.73 186.718 109.672C186.69 109.657 186.65 109.657 186.623 109.643C186.515 109.599 186.406 109.584 186.298 109.569C186.271 109.569 186.258 109.555 186.231 109.555C186.136 109.584 186.028 109.613 185.92 109.613C185.893 109.628 185.866 109.643 185.839 109.657C185.69 109.73 185.568 109.818 185.446 109.935C185.419 109.965 185.392 109.979 185.365 109.994L174.696 123.857L157.617 135.422C157.536 135.48 157.469 135.539 157.401 135.597L154.899 138.305L130.843 117.342C130.83 117.328 130.803 117.328 130.776 117.313L130.789 117.328C130.6 117.181 130.383 117.093 130.154 117.093C130.127 117.093 130.099 117.108 130.072 117.108V117.093C129.843 117.079 129.626 117.167 129.464 117.328C129.45 117.342 129.423 117.328 129.41 117.342L117.983 127.238L111.222 129.683C111.087 129.727 110.965 129.815 110.857 129.902L94.7248 144.307L79.2689 126.301H79.2824C79.2418 126.272 79.2148 126.243 79.1742 126.228C79.0931 126.14 78.9984 126.067 78.9038 126.023L78.8497 126.009C78.7144 125.95 78.5792 125.921 78.4305 125.921H78.417C78.3088 125.906 78.2006 125.921 78.0924 125.95C78.0654 125.965 78.0383 125.994 78.0113 125.994L77.9978 126.009C77.9572 126.023 77.9302 126.052 77.8896 126.067C77.7949 126.126 77.7138 126.184 77.6327 126.257C77.6192 126.272 77.5921 126.272 77.5786 126.301L49.6819 158.815L36.9303 165.724C36.7545 165.812 36.6057 165.959 36.4976 166.134L21.8527 189.484L0.149397 189.498C-0.486142 189.498 -1 190.055 -1 190.743C-1 191.445 -0.486142 192.001 0.149397 192.001H48.167C48.8026 192.001 49.3164 191.445 49.3164 190.743C49.3164 190.055 48.8026 189.498 48.167 189.498H24.6515L38.2551 167.818L50.9257 160.967L50.9122 160.952C51.0339 160.894 51.1421 160.806 51.2367 160.689L77.9163 129.595L80.499 138.628C80.5531 138.818 80.6613 138.994 80.783 139.14L89.816 148.919L92.7774 157.585L95.7659 167.818H95.7794C95.8605 168.082 96.0093 168.316 96.2256 168.477L111.249 179.69L115.549 189.499H78.4289C77.7934 189.499 77.266 190.055 77.266 190.743C77.266 191.446 77.7933 192.002 78.4289 192.002H293.26C293.896 192.002 294.41 191.446 294.41 190.743C294.41 190.055 293.896 189.499 293.26 189.499L293.261 189.498ZM209.518 139.974L228.571 149.138L239.173 169.779H239.159C239.213 169.867 239.267 169.954 239.321 170.028L255.954 189.497H232.939L217.104 158.99C217.023 158.843 216.928 158.712 216.807 158.609L200.756 145.127L194.833 136.958L188.856 115.731L209.126 139.666C209.234 139.798 209.37 139.9 209.518 139.973L209.518 139.974ZM158.959 137.485L176.106 125.891L176.092 125.876C176.2 125.803 176.295 125.715 176.376 125.627L185.788 113.404L192.684 137.924C192.725 138.071 192.793 138.203 192.874 138.32L199.013 146.796V146.81C199.08 146.883 199.148 146.957 199.216 147.015L215.199 160.424L230.277 189.483L143.017 189.497L128.927 170.73L128.94 170.716C128.832 170.584 128.697 170.467 128.548 170.393L124.789 168.359L143.936 153.72L145.843 151.656L158.959 137.485ZM145.451 148.581L142.936 142.023V142.009C142.895 141.935 142.868 141.862 142.814 141.789L134.903 129.331L132.564 122.07L153.267 140.091L145.451 148.581ZM112.172 131.995L118.92 129.565L118.906 129.551C119.041 129.507 119.163 129.434 119.271 129.346L129.575 120.416L132.767 130.312C132.807 130.414 132.848 130.517 132.902 130.605L140.84 143.092L143.666 150.499L142.462 151.802L122.449 167.07L107.183 158.799L96.3241 146.137L112.172 131.995ZM113.213 178.312C113.119 178.107 112.983 177.946 112.821 177.814L97.8789 166.644L94.9851 156.778L91.9156 147.79C91.8615 147.614 91.7668 147.467 91.6451 147.336L82.6391 137.586L81.057 132.038L105.627 160.686C105.708 160.803 105.83 160.891 105.952 160.95L127.29 172.5L140.028 189.481L118.109 189.495L113.213 178.312Z"
      fill="#E5E5E5"/>
    <path
      d="M70.9526 189.496H57.1327C56.4971 189.496 55.9697 190.052 55.9697 190.74C55.9697 191.443 56.4971 191.999 57.1327 191.999H70.9526C71.5881 191.999 72.1155 191.443 72.1155 190.74C72.1155 190.052 71.5882 189.496 70.9526 189.496Z"
      fill="#E5E5E5"/>
    <path
      d="M1443.35 188.794L543.928 189.497L536.362 179.74L525.652 158.865V158.85C525.531 158.616 525.341 158.426 525.111 158.309L505.923 149.072L482.367 121.243C482.34 121.214 482.313 121.199 482.286 121.184L482.272 121.199C482.178 121.097 482.083 121.023 481.961 120.965C481.934 120.95 481.894 120.95 481.867 120.935C481.759 120.892 481.65 120.877 481.542 120.862C481.515 120.862 481.502 120.848 481.475 120.848C481.38 120.877 481.272 120.906 481.164 120.906C481.136 120.921 481.109 120.935 481.082 120.95C480.934 121.023 480.812 121.111 480.69 121.228C480.663 121.258 480.636 121.272 480.609 121.287L459.507 135.15L442.429 158.009C442.348 158.067 442.28 158.126 442.212 158.184L439.711 160.893L403.135 132.023C403.122 132.009 403.095 132.009 403.068 131.994L403.081 132.009C402.892 131.862 402.675 131.775 402.446 131.775C402.419 131.775 402.391 131.789 402.364 131.789V131.775C402.135 131.76 401.918 131.848 401.756 132.009C401.742 132.023 401.715 132.009 401.702 132.023L390.275 141.919L383.514 144.364C383.379 144.408 383.257 144.496 383.149 144.584L379.536 144.306L364.08 126.3H364.094C364.053 126.271 364.026 126.242 363.985 126.227C363.904 126.139 363.81 126.066 363.715 126.022L363.661 126.007C363.526 125.949 363.39 125.92 363.242 125.92H363.228C363.12 125.905 363.012 125.92 362.904 125.949C362.877 125.963 362.85 125.993 362.823 125.993L362.809 126.007C362.768 126.022 362.741 126.051 362.701 126.066C362.606 126.125 362.525 126.183 362.444 126.256C362.43 126.271 362.403 126.271 362.39 126.3L292.763 170.108L280.011 165.723C279.835 165.811 279.686 165.957 279.578 166.133L264.933 189.482L243.23 189.497C242.594 189.497 242.081 190.053 242.081 190.741C242.081 191.444 242.594 192 243.23 192H291.248C291.883 192 292.397 191.444 292.397 190.741C292.397 190.053 291.883 189.497 291.248 189.497H267.732L281.336 167.817L294.006 172.26L293.993 172.245C294.115 172.187 294.223 172.099 294.317 171.982L362.727 129.594L365.31 138.627C365.364 138.817 365.472 138.993 365.594 139.139L374.627 148.918L377.589 157.584L380.577 167.817H380.591C380.672 168.08 380.82 168.315 381.037 168.476L396.06 179.689L400.36 189.497H3.24008C2.60454 189.497 2.07715 190.054 2.07715 190.742C2.07715 191.444 2.60451 192.001 3.24008 192.001L1443.35 191.298C1443.99 191.298 1444.5 190.742 1444.5 190.039C1444.5 189.351 1443.99 188.794 1443.35 188.794ZM504.762 151.267L523.815 160.431L534.416 181.072H534.403C534.457 181.16 534.511 181.247 534.565 181.321L540.765 189.496H517.75L512.348 170.283C512.267 170.136 512.172 170.005 512.051 169.902L496 156.42L490.077 148.251L484.1 127.024L504.37 150.959C504.478 151.091 504.613 151.194 504.762 151.267ZM443.771 160.072L460.917 137.184L460.903 137.169C461.012 137.096 461.106 137.008 461.187 136.92L481.032 124.697L487.928 149.217C487.969 149.364 488.036 149.495 488.117 149.613L494.257 158.088V158.103C494.324 158.176 494.392 158.25 494.459 158.308L510.443 171.717L515.088 189.482L427.828 189.496L413.738 170.729L413.751 170.714C413.643 170.583 413.508 170.466 413.359 170.392L409.6 168.358L428.747 176.307L430.654 174.243L443.771 160.072ZM430.262 171.168L427.747 164.61V164.596C427.706 164.522 427.679 164.449 427.625 164.376L407.195 144.012L404.856 136.751L438.078 162.678L430.262 171.168ZM384.464 146.677L391.212 144.246L391.198 144.232C391.333 144.188 391.455 144.115 391.563 144.027L401.867 135.097L405.059 144.993C405.099 145.096 405.14 145.198 405.194 145.286L425.651 165.679L428.477 173.086L427.274 174.389L407.261 167.069L391.994 158.798L381.135 146.136L384.464 146.677ZM398.024 178.311C397.93 178.106 397.795 177.945 397.632 177.813L382.69 166.643L379.796 156.777L376.727 147.788C376.673 147.613 376.578 147.466 376.456 147.335L367.45 137.585L365.868 132.037L390.438 160.685C390.52 160.802 390.641 160.89 390.763 160.948L412.101 172.499L424.84 189.48L402.92 189.494L398.024 178.311Z"
      fill="#E5E5E5"/>
    <path
      d="M165.737 101.375C166.731 101.383 168.118 101.648 169.921 102.566C174.592 104.943 178.441 101.769 178.441 101.769V112.116C175.796 114.088 172.72 114.291 169.921 112.912C165.779 110.872 163.836 112.125 163.836 112.125V101.778C163.836 101.778 164.46 101.364 165.737 101.375H165.737Z"
      fill="#E5E5E5"/>
    <path
      d="M179.986 99.1172C180.286 99.1172 180.528 99.3799 180.528 99.7045V124.958C180.528 125.283 180.286 125.545 179.986 125.545C179.687 125.545 179.444 125.283 179.444 124.958V99.7045C179.444 99.3799 179.687 99.1172 179.986 99.1172Z"
      fill="#E5E5E5"/>
    <path
      d="M171.946 111.534L172.034 109.146L174.209 109.274L174.269 107.682L172.094 107.554L172.182 105.166L170.632 105.074L170.544 107.463L168.369 107.334L168.309 108.926L170.484 109.055L170.396 111.443L171.946 111.534Z"
      fill="white"/>
    <path fill-rule="evenodd" clip-rule="evenodd"
          d="M173.471 49.093C164.306 53.2117 159.674 39.323 168.74 37.3677C168.789 35.3075 170.465 33.7243 172.336 33.5653C172.928 27.8093 180.318 25.1673 184.062 28.7058C188.545 25.9588 194.36 28.3895 195.888 33.7227C197.612 34.039 199.14 35.3601 199.73 37.1565C205.248 37.2089 207.614 48.5114 197.857 48.2475C195.148 51.627 190.319 51.627 187.559 48.5637C185.096 51.0993 181.252 51.2041 178.493 48.9866C176.917 49.7782 175.143 49.8324 173.467 49.0915L173.471 49.093ZM197.219 46.7689C194.805 50.5189 189.582 50.1485 187.611 46.1888C185.443 50.0436 181.009 49.7274 178.644 47.1394C176.968 48.5129 174.997 48.4063 173.52 47.4557C165.341 51.84 161.251 38.7938 170.514 38.6363C169.282 37.2104 170.957 34.252 173.717 35.2026C172.879 28.6007 181.501 26.7518 183.867 30.6611C187.858 27.175 193.967 29.6057 194.757 35.1502C196.776 34.9388 198.599 36.6286 198.649 38.7936C203.281 37.1562 206.484 47.5079 197.22 46.7689L197.219 46.7689Z"
          fill="#E5E5E5"/>
    <path fill-rule="evenodd" clip-rule="evenodd"
          d="M962.178 21.9875C953.013 26.1062 948.381 12.2176 957.447 10.2622C957.496 8.20198 959.172 6.61883 961.043 6.4598C961.635 0.703834 969.025 -1.93818 972.769 1.60031C977.252 -1.14665 983.067 1.28403 984.595 6.61727C986.319 6.93356 987.847 8.25464 988.437 10.051C993.955 10.1034 996.321 21.4059 986.564 21.142C983.855 24.5215 979.026 24.5215 976.266 21.4583C973.803 23.9938 969.959 24.0986 967.2 21.8811C965.624 22.6727 963.85 22.7269 962.174 21.986L962.178 21.9875ZM985.926 19.6635C983.512 23.4135 978.289 23.043 976.318 19.0833C974.15 22.9382 969.716 22.6219 967.351 20.0339C965.675 21.4074 963.704 21.3008 962.227 20.3502C954.048 24.7345 949.959 11.6883 959.221 11.5308C957.989 10.1049 959.664 7.14649 962.424 8.0971C961.586 1.4952 970.208 -0.353672 972.574 3.55566C976.565 0.0695152 982.674 2.5002 983.464 8.04476C985.483 7.83331 987.306 9.52309 987.356 11.6881C991.988 10.0508 995.191 20.4024 985.927 19.6634L985.926 19.6635Z"
          fill="#E5E5E5"/>
    <path
      d="M354.753 20.6662C354.753 16.9162 348.748 13.8787 341.335 13.8787C340.761 13.8787 340.184 13.9115 339.672 13.9431C338.075 12.3598 334.88 11.293 331.174 11.293C328.044 11.293 325.296 12.0682 323.571 13.2323C320.823 12.0366 317.246 11.3258 313.283 11.3258C304.464 11.3258 297.374 14.9455 297.374 19.3732C297.374 22.2177 300.249 24.7062 304.656 26.1277C305.869 29.2626 311.3 31.6224 317.82 31.6224C320.696 31.6224 323.317 31.1704 325.488 30.3939C326.831 30.7499 328.298 30.9431 329.896 30.9431C334.241 30.9431 337.948 29.4558 339.096 27.4207H342.036C349.132 27.2591 354.753 24.3186 354.753 20.6662L354.753 20.6662Z"
      stroke="#E5E5E5" stroke-width="2" stroke-miterlimit="10"/>
    <path fill-rule="evenodd" clip-rule="evenodd"
          d="M1175.84 182.484C1176.54 184.901 1174.3 186.562 1172.61 185.807C1172.05 187.317 1171.63 189.13 1172.33 190.791H1183.57C1184.42 188.826 1184.56 186.409 1183.43 183.691C1180.06 185.353 1176.69 181.124 1178.94 177.799C1176.83 175.533 1178.09 171.906 1181.18 171.906C1181.46 167.073 1188.21 167.073 1188.35 171.906C1191.72 171.151 1193.97 175.683 1191.44 178.402C1192.71 181.876 1189.33 184.445 1186.81 183.235C1185.96 185.652 1185.4 188.22 1186.38 190.789H1198.04C1198.75 189.128 1198.32 187.315 1197.76 185.805C1196.08 186.56 1193.83 184.899 1194.67 182.482C1192.99 180.67 1194.39 177.648 1196.78 178.1C1196.92 174.928 1201.42 174.928 1201.56 178.1C1203.67 178.1 1204.51 180.517 1203.1 182.179C1204.65 184.294 1202.4 187.163 1200.15 186.106C1199.31 187.919 1199.31 189.429 1199.87 190.79H1206.06V191.999H1164.33V190.79H1170.51C1171.07 189.43 1171.07 187.919 1170.37 186.106C1168.12 187.163 1165.87 184.294 1167.28 182.179C1165.87 180.517 1166.72 178.1 1168.96 178.1C1168.96 174.928 1173.6 174.928 1173.74 178.1C1175.99 177.646 1177.39 180.668 1175.85 182.482L1175.84 182.484ZM1198.18 185.656C1198.32 185.505 1198.46 185.355 1198.46 185.202V186.411L1198.18 185.656ZM1199.17 185.355C1199.31 185.505 1199.45 185.656 1199.73 185.808C1199.59 186.11 1199.45 186.413 1199.31 186.865L1199.17 185.355ZM1186.24 182.938C1186.1 182.787 1185.82 182.636 1185.68 182.484L1185.82 184.145L1186.24 182.936L1186.24 182.938ZM1184.69 182.484C1184.41 182.785 1184.27 183.088 1183.99 183.239C1184.13 183.844 1184.41 184.296 1184.55 184.75L1184.69 182.484ZM1172.33 185.656C1172.19 185.505 1172.05 185.355 1171.91 185.202V186.411L1172.33 185.656ZM1171.2 185.355C1171.06 185.505 1170.92 185.656 1170.78 185.808C1170.92 186.11 1171.06 186.413 1171.06 186.865L1171.2 185.355H1171.2Z"
          fill="#DCDCDC"/>
    <path fill-rule="evenodd" clip-rule="evenodd"
          d="M1226.96 182.484C1227.66 184.901 1225.42 186.562 1223.73 185.807C1223.17 187.317 1222.75 189.13 1223.45 190.791H1234.69C1235.54 188.826 1235.68 186.409 1234.55 183.691C1231.18 185.353 1227.81 181.124 1230.06 177.799C1227.95 175.533 1229.21 171.906 1232.3 171.906C1232.58 167.073 1239.33 167.073 1239.47 171.906C1242.84 171.151 1245.09 175.683 1242.56 178.402C1243.83 181.876 1240.45 184.445 1237.93 183.235C1237.08 185.652 1236.52 188.22 1237.5 190.789H1249.16C1249.87 189.128 1249.45 187.315 1248.88 185.805C1247.2 186.56 1244.95 184.899 1245.79 182.482C1244.11 180.67 1245.51 177.648 1247.9 178.1C1248.04 174.928 1252.54 174.928 1252.68 178.1C1254.79 178.1 1255.63 180.517 1254.22 182.179C1255.77 184.294 1253.52 187.163 1251.27 186.106C1250.43 187.919 1250.43 189.429 1250.99 190.79H1257.18V191.999H1215.45V190.79H1221.63C1222.19 189.43 1222.19 187.919 1221.49 186.106C1219.24 187.163 1216.99 184.294 1218.4 182.179C1216.99 180.517 1217.84 178.1 1220.08 178.1C1220.08 174.928 1224.72 174.928 1224.86 178.1C1227.11 177.646 1228.51 180.668 1226.97 182.482L1226.96 182.484ZM1249.3 185.656C1249.44 185.505 1249.58 185.355 1249.58 185.202V186.411L1249.3 185.656ZM1250.29 185.355C1250.43 185.505 1250.57 185.656 1250.85 185.808C1250.71 186.11 1250.57 186.413 1250.43 186.865L1250.29 185.355ZM1237.36 182.938C1237.22 182.787 1236.94 182.636 1236.8 182.484L1236.94 184.145L1237.36 182.936L1237.36 182.938ZM1235.81 182.484C1235.53 182.785 1235.39 183.088 1235.11 183.239C1235.25 183.844 1235.53 184.296 1235.67 184.75L1235.81 182.484ZM1223.45 185.656C1223.31 185.505 1223.17 185.355 1223.03 185.202V186.411L1223.45 185.656ZM1222.32 185.355C1222.18 185.505 1222.04 185.656 1221.9 185.808C1222.04 186.11 1222.18 186.413 1222.18 186.865L1222.32 185.355H1222.32Z"
          fill="#DCDCDC"/>
    <path fill-rule="evenodd" clip-rule="evenodd"
          d="M1143.57 183.001C1144.15 185.021 1142.3 186.41 1140.91 185.779C1140.44 187.042 1140.1 188.557 1140.68 189.945H1149.95C1150.65 188.303 1150.76 186.283 1149.83 184.01C1147.05 185.399 1144.27 181.864 1146.13 179.085C1144.39 177.191 1145.43 174.159 1147.98 174.159C1148.21 170.119 1153.78 170.119 1153.89 174.159C1156.67 173.528 1158.53 177.316 1156.44 179.589C1157.48 182.493 1154.7 184.641 1152.62 183.629C1151.92 185.65 1151.46 187.796 1152.27 189.944H1161.89C1162.47 188.555 1162.12 187.04 1161.66 185.777C1160.27 186.409 1158.41 185.02 1159.11 183C1157.72 181.485 1158.88 178.959 1160.85 179.337C1160.96 176.685 1164.67 176.685 1164.79 179.337C1166.53 179.337 1167.22 181.357 1166.06 182.746C1167.34 184.514 1165.48 186.913 1163.63 186.029C1162.93 187.544 1162.93 188.807 1163.4 189.944H1168.5V190.955H1134.07V189.944H1139.17C1139.64 188.807 1139.64 187.544 1139.06 186.029C1137.2 186.913 1135.35 184.514 1136.51 182.746C1135.35 181.357 1136.04 179.337 1137.9 179.337C1137.9 176.685 1141.72 176.685 1141.84 179.337C1143.69 178.958 1144.85 181.483 1143.58 183L1143.57 183.001ZM1162 185.653C1162.12 185.527 1162.23 185.401 1162.23 185.273V186.284L1162 185.653ZM1162.81 185.401C1162.93 185.527 1163.05 185.653 1163.28 185.78C1163.16 186.032 1163.05 186.286 1162.93 186.664L1162.81 185.401ZM1152.15 183.381C1152.03 183.255 1151.8 183.129 1151.69 183.001L1151.8 184.39L1152.15 183.379L1152.15 183.381ZM1150.87 183.001C1150.64 183.253 1150.53 183.507 1150.3 183.633C1150.41 184.138 1150.64 184.516 1150.76 184.895L1150.87 183.001ZM1140.67 185.653C1140.56 185.527 1140.44 185.401 1140.33 185.273V186.284L1140.67 185.653ZM1139.75 185.401C1139.63 185.527 1139.51 185.653 1139.4 185.78C1139.51 186.032 1139.63 186.286 1139.63 186.664L1139.74 185.401H1139.75Z"
          fill="#DCDCDC"/>
    <path
      d="M199.307 175.624C199.307 180.925 197.439 185.223 195.134 185.223C192.828 185.223 190.96 180.925 190.96 175.624C190.96 170.322 192.828 166.023 195.134 166.023C197.439 166.023 199.307 170.322 199.307 175.624Z"
      fill="#E5E5E5"/>
    <path
      d="M199.307 175.624C199.307 180.925 197.439 185.223 195.134 185.223C192.828 185.223 190.96 180.925 190.96 175.624C190.96 170.322 192.828 166.023 195.134 166.023C197.439 166.023 199.307 170.322 199.307 175.624"
      stroke="#E5E5E5" stroke-miterlimit="10"/>
    <path
      d="M209.739 173.932C209.739 180.168 207.871 185.225 205.567 185.225C203.261 185.225 201.393 180.168 201.393 173.932C201.393 167.693 203.261 162.637 205.567 162.637C207.872 162.637 209.739 167.693 209.739 173.932Z"
      fill="#E5E5E5"/>
    <path
      d="M209.739 173.932C209.739 180.168 207.871 185.225 205.567 185.225C203.261 185.225 201.393 180.168 201.393 173.932C201.393 167.693 203.261 162.637 205.567 162.637C207.872 162.637 209.739 167.693 209.739 173.932"
      stroke="#E5E5E5" stroke-miterlimit="10"/>
    <path
      d="M189.126 175.228C189.126 180.934 187.202 185.56 184.827 185.56C182.452 185.56 180.528 180.934 180.528 175.228C180.528 169.521 182.452 164.895 184.827 164.895C187.202 164.895 189.126 169.521 189.126 175.228Z"
      fill="#E5E5E5"/>
    <path
      d="M189.126 175.228C189.126 180.934 187.202 185.56 184.827 185.56C182.452 185.56 180.528 180.934 180.528 175.228C180.528 169.521 182.452 164.895 184.827 164.895C187.202 164.895 189.126 169.521 189.126 175.228"
      stroke="#E5E5E5" stroke-miterlimit="10"/>
    <path d="M195.464 178.727V191.56V178.727Z" fill="#E5E5E5"/>
    <path d="M195.464 178.727V191.56" stroke="#E5E5E5" stroke-miterlimit="10"/>
    <path d="M195.427 182.332L198.231 179.297L195.427 182.332Z" fill="#E5E5E5"/>
    <path d="M195.427 182.332L198.231 179.297" stroke="#E5E5E5" stroke-miterlimit="10"/>
    <path d="M193.695 177.578L195.428 179.942L193.695 177.578Z" fill="#E5E5E5"/>
    <path d="M193.695 177.578L195.428 179.942" stroke="#E5E5E5" stroke-miterlimit="10"/>
    <path d="M195.428 184.04L193.695 181.676L195.428 184.04Z" fill="#E5E5E5"/>
    <path d="M195.428 184.04L193.695 181.676" stroke="#E5E5E5" stroke-miterlimit="10"/>
    <path d="M205.976 178.727V191.56V178.727Z" fill="#E5E5E5"/>
    <path d="M205.976 178.727V191.56" stroke="#E5E5E5" stroke-miterlimit="10"/>
    <path d="M205.976 181.926L208.78 178.891L205.976 181.926Z" fill="#E5E5E5"/>
    <path d="M205.976 181.926L208.78 178.891" stroke="#E5E5E5" stroke-miterlimit="10"/>
    <path d="M204.179 177.707L205.911 180.071L204.179 177.707Z" fill="#E5E5E5"/>
    <path d="M204.179 177.707L205.911 180.071" stroke="#E5E5E5" stroke-miterlimit="10"/>
    <path d="M205.975 183.95L204.242 181.586L205.975 183.95Z" fill="#E5E5E5"/>
    <path d="M205.975 183.95L204.242 181.586" stroke="#E5E5E5" stroke-miterlimit="10"/>
    <path d="M184.952 178.727V191.56V178.727Z" fill="#E5E5E5"/>
    <path d="M184.952 178.727V191.56" stroke="#E5E5E5" stroke-miterlimit="10"/>
    <path d="M184.921 182.332L187.725 179.297L184.921 182.332Z" fill="#E5E5E5"/>
    <path d="M184.921 182.332L187.725 179.297" stroke="#E5E5E5" stroke-miterlimit="10"/>
    <path d="M183.189 177.609L184.921 179.973L183.189 177.609Z" fill="#E5E5E5"/>
    <path d="M183.189 177.609L184.921 179.973" stroke="#E5E5E5" stroke-miterlimit="10"/>
    <path d="M184.953 184.04L183.22 181.676L184.953 184.04Z" fill="#E5E5E5"/>
    <path d="M184.953 184.04L183.22 181.676" stroke="#E5E5E5" stroke-miterlimit="10"/>
    <path d="M180.811 191.559H209.114H180.811Z" fill="#E5E5E5"/>
    <path d="M180.811 191.559H209.114" stroke="#E5E5E5" stroke-miterlimit="10"/>
    <path
      d="M741.804 175.624C741.804 180.925 739.936 185.223 737.632 185.223C735.326 185.223 733.458 180.925 733.458 175.624C733.458 170.322 735.326 166.023 737.632 166.023C739.937 166.023 741.804 170.322 741.804 175.624Z"
      fill="#E5E5E5"/>
    <path
      d="M741.804 175.624C741.804 180.925 739.936 185.223 737.632 185.223C735.326 185.223 733.458 180.925 733.458 175.624C733.458 170.322 735.326 166.023 737.632 166.023C739.937 166.023 741.804 170.322 741.804 175.624"
      stroke="#E5E5E5" stroke-miterlimit="10"/>
    <path
      d="M752.237 173.932C752.237 180.168 750.369 185.225 748.064 185.225C745.758 185.225 743.891 180.168 743.891 173.932C743.891 167.693 745.758 162.637 748.064 162.637C750.369 162.637 752.237 167.693 752.237 173.932Z"
      fill="#E5E5E5"/>
    <path
      d="M752.237 173.932C752.237 180.168 750.369 185.225 748.064 185.225C745.758 185.225 743.891 180.168 743.891 173.932C743.891 167.693 745.758 162.637 748.064 162.637C750.369 162.637 752.237 167.693 752.237 173.932"
      stroke="#E5E5E5" stroke-miterlimit="10"/>
    <path
      d="M731.623 175.228C731.623 180.934 729.699 185.56 727.325 185.56C724.949 185.56 723.025 180.934 723.025 175.228C723.025 169.521 724.949 164.895 727.325 164.895C729.699 164.895 731.623 169.521 731.623 175.228Z"
      fill="#E5E5E5"/>
    <path
      d="M731.623 175.228C731.623 180.934 729.699 185.56 727.325 185.56C724.949 185.56 723.025 180.934 723.025 175.228C723.025 169.521 724.949 164.895 727.325 164.895C729.699 164.895 731.623 169.521 731.623 175.228"
      stroke="#E5E5E5" stroke-miterlimit="10"/>
    <path d="M737.961 178.727V191.56V178.727Z" fill="#E5E5E5"/>
    <path d="M737.961 178.727V191.56" stroke="#E5E5E5" stroke-miterlimit="10"/>
    <path d="M737.924 182.332L740.728 179.297L737.924 182.332Z" fill="#E5E5E5"/>
    <path d="M737.924 182.332L740.728 179.297" stroke="#E5E5E5" stroke-miterlimit="10"/>
    <path d="M736.192 177.578L737.926 179.942L736.192 177.578Z" fill="#E5E5E5"/>
    <path d="M736.192 177.578L737.926 179.942" stroke="#E5E5E5" stroke-miterlimit="10"/>
    <path d="M737.926 184.04L736.192 181.676L737.926 184.04Z" fill="#E5E5E5"/>
    <path d="M737.926 184.04L736.192 181.676" stroke="#E5E5E5" stroke-miterlimit="10"/>
    <path d="M748.473 178.727V191.56V178.727Z" fill="#E5E5E5"/>
    <path d="M748.473 178.727V191.56" stroke="#E5E5E5" stroke-miterlimit="10"/>
    <path d="M748.473 181.926L751.277 178.891L748.473 181.926Z" fill="#E5E5E5"/>
    <path d="M748.473 181.926L751.277 178.891" stroke="#E5E5E5" stroke-miterlimit="10"/>
    <path d="M746.676 177.707L748.408 180.071L746.676 177.707Z" fill="#E5E5E5"/>
    <path d="M746.676 177.707L748.408 180.071" stroke="#E5E5E5" stroke-miterlimit="10"/>
    <path d="M748.473 183.95L746.739 181.586L748.473 183.95Z" fill="#E5E5E5"/>
    <path d="M748.473 183.95L746.739 181.586" stroke="#E5E5E5" stroke-miterlimit="10"/>
    <path d="M727.449 178.727V191.56V178.727Z" fill="#E5E5E5"/>
    <path d="M727.449 178.727V191.56" stroke="#E5E5E5" stroke-miterlimit="10"/>
    <path d="M727.418 182.332L730.222 179.297L727.418 182.332Z" fill="#E5E5E5"/>
    <path d="M727.418 182.332L730.222 179.297" stroke="#E5E5E5" stroke-miterlimit="10"/>
    <path d="M725.687 177.609L727.418 179.973L725.687 177.609Z" fill="#E5E5E5"/>
    <path d="M725.687 177.609L727.418 179.973" stroke="#E5E5E5" stroke-miterlimit="10"/>
    <path d="M727.45 184.04L725.717 181.676L727.45 184.04Z" fill="#E5E5E5"/>
    <path d="M727.45 184.04L725.717 181.676" stroke="#E5E5E5" stroke-miterlimit="10"/>
    <path d="M723.309 191.559H751.612H723.309Z" fill="#E5E5E5"/>
    <path d="M723.309 191.559H751.612" stroke="#E5E5E5" stroke-miterlimit="10"/>
    <rect x="760.583" y="188.613" width="60.5094" height="3.38821" rx="1.69411" fill="#E5E5E5"/>
  </g>
</svg>
