<svg width="91" height="138" viewBox="0 0 91 138" xmlns="http://www.w3.org/2000/svg">
  <path fill="currentColor" fill-rule="evenodd" clip-rule="evenodd"
        d="M28.8778 6.75398C30.1233 6.2766 31.0169 4.98955 31.0169 3.47935C31.0169 1.5567 29.5847 0 27.8083 0C26.0318 0 24.5935 1.55677 24.5996 3.47935C24.5996 4.99055 25.4906 6.27823 26.7387 6.75488V16.0432H28.8778V6.75398ZM9.14309 91.4463C10.9425 91.4463 10.7873 85.4438 10.5629 76.7637C10.4767 73.4331 10.3804 69.7083 10.3804 65.7771C10.3804 61.8459 10.4767 58.1211 10.5629 54.7905C10.7873 46.1104 10.9425 40.108 9.14309 40.108C6.65322 40.108 0 51.6005 0 65.7771C0 79.9538 6.65322 91.4463 9.14309 91.4463ZM42.212 31.7409C42.3753 32.4655 41.9538 32.6756 41.2742 32.371C38.0235 30.9165 32.2018 31.5886 29.3888 33.458C28.7671 33.8728 28.3035 33.7416 28.3457 32.9959C28.7667 24.9721 40.3047 23.444 42.212 31.7409ZM81.7813 91.4463C79.967 91.4463 80.1235 85.4438 80.3498 76.7637L80.3499 76.7631C80.4367 73.4326 80.5338 69.7081 80.5338 65.7771C80.5338 61.8462 80.4367 58.1216 80.3499 54.7912L80.3498 54.7905C80.1235 46.1104 79.967 40.108 81.7813 40.108C84.2918 40.108 91 51.6005 91 65.7771C91 79.9538 84.2918 91.4463 81.7813 91.4463ZM62.0304 32.977C62.0778 33.7336 61.6253 33.8785 61.0044 33.4599C58.0316 31.4582 52.1857 31.1899 49.118 32.6174C48.4393 32.934 48.0078 32.7247 48.1604 31.9842C49.8601 23.9559 61.4832 24.294 62.0304 32.977Z"/>
  <path fill="currentColor" fill-rule="evenodd" clip-rule="evenodd"
        d="M68.9856 133.961C68.9856 136.173 58.6879 137.972 45.9904 137.972C33.2929 137.972 22.9951 136.173 22.9951 133.961C22.9951 131.749 33.2929 129.95 45.9904 129.95C58.6879 129.95 68.9856 131.749 68.9856 133.961Z"/>
  <path fill="currentColor" fill-rule="evenodd" clip-rule="evenodd"
        d="M46.1082 110.698C16.7528 110.698 12.835 55.1536 12.835 39.144C12.835 23.1345 27.4329 10.1607 45.4553 10.1607C63.4668 10.1607 78.0709 23.1417 78.0773 39.144C78.0773 55.1526 74.8181 110.698 46.1082 110.698ZM19.5971 33.6519C19.5971 42.5122 31.0827 49.6974 45.2457 49.6974C59.4094 49.6974 70.9009 42.5189 70.9009 33.6519C70.9009 24.7961 59.4088 17.611 45.2457 17.611C31.0758 17.611 19.5971 24.7969 19.5971 33.6519ZM54.9557 61.9058C55.8484 61.9058 56.5721 61.1821 56.5721 60.2895C56.5721 59.3968 55.8484 58.6731 54.9557 58.6731C54.0631 58.6731 53.3394 59.3968 53.3394 60.2895C53.3394 61.1821 54.0631 61.9058 54.9557 61.9058ZM60.9363 60.2895C60.9363 61.1821 60.2126 61.9058 59.3199 61.9058C58.4273 61.9058 57.7036 61.1821 57.7036 60.2895C57.7036 59.3968 58.4273 58.6731 59.3199 58.6731C60.2126 58.6731 60.9363 59.3968 60.9363 60.2895ZM63.6838 61.9058C64.5765 61.9058 65.3001 61.1821 65.3001 60.2895C65.3001 59.3968 64.5765 58.6731 63.6838 58.6731C62.7911 58.6731 62.0675 59.3968 62.0675 60.2895C62.0675 61.1821 62.7911 61.9058 63.6838 61.9058Z"/>
</svg>
