<svg xmlns="http://www.w3.org/2000/svg" viewBox="0 0 80 80">
  <g fill="none" stroke="currentColor" stroke-width="2" stroke-linecap="round" stroke-linejoin="round">
    <path
      d="M69 21v-7c0-.6-.4-1-1-1H28c-.6 0-1 .4-1 1v6c0 .6.4 1 1 1h3m-1 4v-3c0-.6.4-1 1-1h40c.6 0 1 .4 1 1v6c0 .6-.4 1-1 1H39.6M67 29v8m-20.4 0H71c.6 0 1 .6 1 1.1v5.7c0 .6-.4 1.1-1 1.2H49"></path>
    <path d="M69 45v6.9c0 .6-.4 1.1-1 1.1H48.1M67 53v8m-23 0h25c.6 0 1 .6 1 1.1v5.7c0 .6-.4 1.1-1 1.2H27"></path>
    <circle cx="27" cy="47" r="22"></circle>
    <circle cx="27" cy="47" r="17"></circle>
    <path
      d="M19.1 52.5c-.6 0-1.2-.1-1.8-.3-.6-.2-1-.5-1.4-1-.4-.4-.7-.9-1-1.6-.2-.6-.4-1.3-.4-2.2 0-.8.1-1.5.4-2.2.3-.6.6-1.2 1-1.6.4-.4.9-.8 1.5-1 .6-.2 1.1-.3 1.8-.3.6 0 1.2.1 1.7.4s.9.6 1.2.9L20.9 45c-.3-.2-.5-.4-.8-.6-.3-.1-.6-.2-.9-.2-.3 0-.6.1-.9.2-.3.1-.6.4-.8.6-.2.3-.4.6-.5 1-.1.4-.2.8-.2 1.3 0 1 .2 1.8.6 2.3.4.6 1 .8 1.7.8.4 0 .8-.1 1.1-.3s.6-.4.8-.7l1.2 1.4c-.8 1.2-1.8 1.7-3.1 1.7zm4.6-.2v-9.8h2.2v3.8h3.4v-3.8h2.2v9.8h-2.2v-4.1h-3.4v4.1h-2.2zm10.2 0v-9.8H40v1.9h-4v2.3h3.4v1.9H36v3.8h-2.1z"
      fill="currentColor" stroke="none"></path>
  </g>
</svg>
