<?xml version="1.0" encoding="utf-8"?>
<!-- Generator: Adobe Illustrator 22.0.0, SVG Export Plug-In . SVG Version: 6.00 Build 0)  -->
<svg version="1.0" id="svg_2px" xmlns="http://www.w3.org/2000/svg" xmlns:xlink="http://www.w3.org/1999/xlink" x="0px" y="0px"
	 viewBox="0 0 96 96" style="enable-background:new 0 0 96 96;" xml:space="preserve">
<path d="M45.1,82c-7.8,0-33.9-3-36.1-3.8c-2.5-0.9-2.9-5-3-5.9l0.1-6.5c0.2-0.8,1-3.6,1.7-4.5c0.6-0.7,1.7-0.9,3.6-1.1
	c0.4,0,0.9-0.1,1.3-0.2c0.1-0.5,0.2-1.3,0.3-2.2c0.5-3.6,1.4-10.4,3.3-16c2.5-7.4,11.9-14.6,14-16c0.5-3.7,3-5,4.3-5.2l9.6-1.7
	L45,14h6.1l1,4.7c1.9,0.3,7.1,1.3,9.4,1.8c2.8,0.6,4.2,4,4.7,5.3c7.9,3.2,14,16.5,14.1,16.7c0.9,2,1.8,7.7,2.6,12.3
	c0.3,1.8,0.6,3.9,0.8,4.6c0.3,0.1,0.8,0.3,1.2,0.4c1.6,0.4,2.6,0.8,3.1,1.3c0.7,0.8,1.5,3,1.7,3.7l0,0.2c0,0.2,0.4,4,0.4,7.4
	c0,3.9-1.8,5.4-4.6,6.4C82.6,79.9,52.7,82,45.1,82z M8,72.2c0.1,1.5,0.7,3.8,1.7,4.1C11.4,76.9,37,80,45.1,80c8.6,0,37.4-2.2,39.5-3
	c2.2-0.9,3.3-1.8,3.3-4.5c0-3-0.3-6.4-0.3-7.1c-0.4-1.2-1-2.6-1.3-2.9c-0.2-0.2-1.4-0.5-2.1-0.7c-1.2-0.3-1.8-0.5-2.2-0.9
	c-0.4-0.4-0.4-0.6-1.3-5.7c-0.7-4-1.6-10-2.4-11.8C76.5,39,70.7,29.5,65,27.5l-0.5-0.2l-0.1-0.5c-0.3-1.1-1.5-4-3.3-4.4
	c-2.8-0.6-9.9-1.9-10-1.9l-0.7-0.1L49.5,16h-2.7L46,20.7l-11.1,2c-0.3,0-2.4,0.5-2.7,3.8l0,0.5l-0.4,0.3
	c-0.1,0.1-11.1,7.8-13.6,15.3C16.4,48,15.5,54.6,15,58.2c-0.3,2.5-0.4,2.9-0.7,3.2c-0.4,0.6-1.2,0.7-2.7,0.8c-0.7,0.1-2,0.2-2.3,0.4
	c-0.2,0.3-0.8,2-1.2,3.5L8,72.2z"/>
<path d="M76.8,71.5l-57-0.1c-0.2,0-3.7-0.3-5.7-2.1c-2-1.9-1.6-7.4-1.5-8.5l2,0.2c-0.2,2.3-0.1,6,0.9,6.9
	c1.2,1.1,3.6,1.5,4.4,1.6l56.9,0.1c0.9-0.1,3.1-0.5,3.7-1.4c0.9-1.4,1.4-4.1,1.4-8h2c0,4.3-0.5,7.3-1.7,9
	C80.8,71.2,77.2,71.5,76.8,71.5z M67.2,53.6h-2c0-2.2-0.8-26.6-0.8-26.9l2-0.1C66.5,27.7,67.2,51.4,67.2,53.6z M29,53.4
	c-0.2-3.9,1.2-26.2,1.3-27.1l2,0.1c0,0.2-1.5,23.1-1.3,26.8L29,53.4z M45.8,32.1l-2,0l0.3-12.5l2,0L45.8,32.1z M50.4,31.8l-0.2-12.5
	l2,0l0.2,12.5L50.4,31.8z"/>
</svg>
