<svg version="1.1" id="Ebene_1" xmlns="http://www.w3.org/2000/svg" x="0" y="0" width="96" height="96" xml:space="preserve"
     viewBox="0 0 96 96">
  <style>.st0{fill:#00008f}</style>
  <path class="st0"
        d="M20.9 72.9h-3.7c-.5 0-.9-.4-.9-.9v-7.2c0-.5.4-.9.9-.9h5.3c.3 0 .5.1.7.3s.2.5.2.8l-1.6 7.2c-.1.4-.5.7-.9.7zm-2.8-1.8h2.1l1.2-5.4h-3.3v5.4z"/>
  <path class="st0"
        d="M78.4 65.7H17c-2.8 0-5.1-2.3-5.1-5.1v-7.9c-3.3-.8-5.6-3.6-5.6-6.7 0-3.9 3.4-7 7.6-7 4.1 0 7.5 3.1 7.5 7v11.3h25.9c.1-.1.3-.1.4-.1h26.4V46c0-3.9 3.4-7 7.5-7s7.5 3.1 7.5 7c0 3.2-2.3 5.9-5.6 6.7v7.9c0 2.8-2.3 5.1-5.1 5.1zM13.9 40.8c-3.1 0-5.8 2.4-5.8 5.2 0 2.5 2 4.7 4.8 5.1.4.1.8.4.8.9v8.6c0 1.8 1.5 3.3 3.3 3.3h61.4c1.8 0 3.3-1.5 3.3-3.3V52c0-.4.3-.8.8-.9 2.8-.4 4.8-2.6 4.8-5.1 0-2.9-2.6-5.2-5.7-5.2s-5.7 2.3-5.7 5.2v12.1c0 .5-.4.9-.9.9H48.1c-.1.1-.3.1-.4.1H20.5c-.5 0-.9-.4-.9-.9V46c0-2.9-2.6-5.2-5.7-5.2z"/>
  <path class="st0"
        d="M78.2 72.9h-3.7c-.4 0-.8-.3-.9-.7L72 65c-.1-.3 0-.5.2-.8s.4-.3.7-.3h5.3c.5 0 .9.4.9.9V72c0 .5-.4.9-.9.9zm-3-1.8h2.1v-5.4H74l1.2 5.4zM75 51H20.4c-.5 0-.9-.4-.9-.9V46c0-2.2-1.6-4.2-3.9-4.9-.4-.1-.6-.5-.6-.9V30.1c0-3.8 3.1-6.9 6.8-6.9h51.8c3.8 0 6.8 3.1 6.8 7v10c0 .4-.2.7-.6.9-2.4.8-3.9 2.8-3.9 4.9v4.1c0 .5-.4.9-.9.9zm-53.7-1.8h52.8V46c0-2.8 1.7-5.2 4.5-6.4v-9.4c0-2.9-2.2-5.2-5-5.2H21.8c-2.8 0-5 2.3-5 5.1v9.5c2.7 1.1 4.5 3.6 4.5 6.4v3.2zm58.2-9z"/>
  <path class="st0" d="M74.9 59H20.4c-.5 0-.9-.4-.9-.9v-8c0-.5.4-.9.9-.9h54.5c.5 0 .9.4.9.9v8c0 .5-.4.9-.9.9zm-53.6-1.8H74V51H21.3v6.2z"/>
</svg>
