<?xml version="1.0" encoding="utf-8"?>
<!-- Generator: Adobe Illustrator 22.0.0, SVG Export Plug-In . SVG Version: 6.00 Build 0)  -->
<svg version="1.0" id="svg_2px" xmlns="http://www.w3.org/2000/svg" xmlns:xlink="http://www.w3.org/1999/xlink" x="0px" y="0px"
	 viewBox="0 0 96 96" style="enable-background:new 0 0 96 96;" xml:space="preserve">
<path d="M77.2,75.9H8.7c-1.2,0-2.2-1-2.2-2.2V37.4c0-1.2,1-2.2,2.2-2.2h68.5c1.2,0,2.2,1,2.2,2.2v36.3
	C79.4,74.9,78.4,75.9,77.2,75.9z M8.7,37.3c-0.1,0-0.2,0.1-0.2,0.2v36.3c0,0.1,0.1,0.2,0.2,0.2h68.5c0.1,0,0.2-0.1,0.2-0.2V37.4
	c0-0.1-0.1-0.2-0.2-0.2H8.7z"/>
<path d="M82.6,70.5h-4.3c-0.6,0-1-0.4-1-1s0.4-1,1-1h4.3c0,0,0.1,0,0.1-0.1V32c0,0,0-0.1-0.1-0.1H14c0,0-0.1,0-0.1,0.1
	v4.3c0,0.6-0.4,1-1,1s-1-0.4-1-1V32c0-1.1,0.9-2.1,2.1-2.1h68.6c1.1,0,2.1,0.9,2.1,2.1v36.5C84.7,69.6,83.8,70.5,82.6,70.5z"/>
<path d="M88,65.2h-4.3c-0.6,0-1-0.4-1-1c0-0.6,0.4-1,1-1H88c0,0,0.1,0,0.1-0.1V26.6c0,0,0-0.1-0.1-0.1H19.4
	c0,0-0.1,0-0.1,0.1v4.3c0,0.6-0.4,1-1,1s-1-0.4-1-1v-4.3c0-1.1,0.9-2.1,2.1-2.1H88c1.1,0,2.1,0.9,2.1,2.1v36.5
	C90.1,64.2,89.2,65.2,88,65.2z"/>
<path d="M68.7,70.5H17.2c-0.6,0-1-0.4-1-1c0-1.8-1.5-3.3-3.3-3.3c-0.6,0-1-0.4-1-1V45.9c0-0.6,0.4-1,1-1
	c1.8,0,3.3-1.5,3.3-3.3c0-0.6,0.4-1,1-1h51.5c0.6,0,1,0.4,1,1c0,1.8,1.5,3.3,3.3,3.3c0.6,0,1,0.4,1,1v19.3c0,0.6-0.4,1-1,1
	c-1.8,0-3.3,1.5-3.3,3.3C69.7,70.1,69.3,70.5,68.7,70.5z M18.1,68.5h49.7c0.4-2.1,2.1-3.8,4.2-4.2V46.8c-2.1-0.4-3.8-2.1-4.2-4.2
	H18.1c-0.4,2.1-2.1,3.8-4.2,4.2v17.5C16.1,64.7,17.7,66.4,18.1,68.5z"/>
<path d="M43,70.5c-8.2,0-14.9-6.7-14.9-14.9S34.7,40.6,43,40.6s14.9,6.7,14.9,14.9S51.2,70.5,43,70.5z M43,42.6
	c-7.1,0-12.9,5.8-12.9,12.9c0,7.1,5.8,12.9,12.9,12.9s12.9-5.8,12.9-12.9C55.9,48.4,50.1,42.6,43,42.6z"/>
<path d="M32.3,55.8c0-0.7,0.1-1.3,0.3-1.8c0.2-0.5,0.5-1,0.8-1.4c0.3-0.4,0.8-0.7,1.2-0.9c0.5-0.2,1-0.3,1.5-0.3
	c0.5,0,1,0.1,1.4,0.3c0.4,0.2,0.7,0.5,1,0.7l-0.8,0.9c-0.2-0.2-0.4-0.4-0.7-0.5c-0.3-0.1-0.5-0.2-0.9-0.2c-0.3,0-0.7,0.1-1,0.2
	c-0.3,0.1-0.5,0.3-0.7,0.6c-0.2,0.3-0.4,0.6-0.5,0.9c-0.1,0.4-0.2,0.8-0.2,1.3c0,0.5,0.1,0.9,0.2,1.3c0.1,0.4,0.3,0.7,0.5,1
	s0.5,0.5,0.8,0.6c0.3,0.1,0.6,0.2,1,0.2c0.3,0,0.6-0.1,0.9-0.2c0.3-0.1,0.5-0.3,0.8-0.6l0.8,0.9c-0.3,0.4-0.7,0.7-1.1,0.9
	c-0.4,0.2-0.9,0.3-1.4,0.3c-0.5,0-1-0.1-1.5-0.3c-0.5-0.2-0.9-0.5-1.2-0.8c-0.3-0.4-0.6-0.8-0.8-1.3C32.4,57.1,32.3,56.5,32.3,55.8z
	"/>
<path d="M40.1,51.7h1.5V55h2.9v-3.3h1.5V60h-1.5v-3.7h-2.9V60h-1.5V51.7z"/>
<path d="M48.3,51.7h5.3v1.2h-3.8v2.4H53v1.2h-3.2V60h-1.5V51.7z"/>
<path d="M66.6,56.6h-4.3c-0.6,0-1-0.4-1-1s0.4-1,1-1h4.3c0.6,0,1,0.4,1,1S67.1,56.6,66.6,56.6z"/>
<path d="M23.7,56.6h-4.3c-0.6,0-1-0.4-1-1s0.4-1,1-1h4.3c0.6,0,1,0.4,1,1S24.2,56.6,23.7,56.6z"/>
</svg>
