<?xml version="1.0" encoding="utf-8"?>
<!-- Generator: Adobe Illustrator 22.0.0, SVG Export Plug-In . SVG Version: 6.00 Build 0)  -->
<svg version="1.0" id="svg_2px" xmlns="http://www.w3.org/2000/svg" xmlns:xlink="http://www.w3.org/1999/xlink" x="0px" y="0px"
	 viewBox="0 0 96 96" style="enable-background:new 0 0 96 96;" xml:space="preserve">
<path d="M68.1,90.1H36.8c-2.6,0-4.7-2.1-4.7-4.7V53.2c0-0.9,0.7-1.6,1.6-1.6l37.5,0c0.9,0,1.6,0.7,1.6,1.6v32.1
	C72.9,88,70.7,90.1,68.1,90.1z M34.1,53.6v31.8c0,1.5,1.2,2.7,2.7,2.7h31.3c1.5,0,2.7-1.2,2.7-2.7V53.6H34.1z"/>
<path d="M57.9,65.4H47c-1.9,0-3.4-1.5-3.4-3.4v-1.2c0-1.9,1.5-3.4,3.4-3.4h10.8c1.9,0,3.4,1.5,3.4,3.4V62
	C61.3,63.9,59.7,65.4,57.9,65.4z M47,59.3c-0.8,0-1.4,0.6-1.4,1.4V62c0,0.8,0.6,1.4,1.4,1.4h10.8c0.8,0,1.4-0.6,1.4-1.4v-1.2
	c0-0.8-0.6-1.4-1.4-1.4H47z"/>
<path d="M18.2,42.5c-1,0-1.8-0.8-1.8-1.8l0.4-30.3c0-0.9,0.7-1.6,1.5-1.8l19.1-2.6c0.9-0.1,1.7,0.4,2,1.2l9.3,29.5
	c0,0.1,0.1,0.2,0.1,0.3c0.1,0.5-0.1,1-0.4,1.3c-0.3,0.4-0.7,0.6-1.2,0.7l-28.8,3.5C18.3,42.5,18.3,42.5,18.2,42.5z M18.8,10.5
	l-0.4,29.9L46.8,37L37.6,7.9L18.8,10.5z"/>
<path d="M40.5,52.7l-2.3-13.5l2-0.3l2.3,13.5L40.5,52.7z"/>
<path d="M71.8,47.7c0,0-0.1,0-0.1,0l-19.3-2.4c-0.4,0-0.7-0.2-1-0.6c-0.2-0.3-0.3-0.6-0.3-1l0-0.2l0.3-2.5
	c0-0.3,0.2-0.7,0.5-1c0.3-0.3,0.7-0.4,1.1-0.3l0.2,0l19,2.3c0.8,0.1,1.4,0.8,1.3,1.6l-0.2,2.7c0,0.4-0.2,0.7-0.5,1
	C72.4,47.6,72.1,47.7,71.8,47.7z M71.2,46.2C71.2,46.2,71.2,46.2,71.2,46.2L71.2,46.2z M53.1,43.4l18.1,2.3l0.1-1.7l-18.1-2.1
	L53.1,43.4z M71.9,44.1C71.9,44.1,71.9,44.1,71.9,44.1L71.9,44.1z M52.6,43.3L52.6,43.3C52.6,43.3,52.6,43.3,52.6,43.3z M53.4,41.3
	L53.4,41.3C53.4,41.3,53.4,41.3,53.4,41.3z"/>
<path d="M68.8,53.6H52.4l0.6-1.5v-8.7l18.5,2.3L68.8,53.6z M55,51.6h12.4l1.4-4.2L55,45.7V51.6z"/>
<path d="M62.3,42.9C62.3,42.9,62.2,42.9,62.3,42.9c-0.6,0-1-0.5-1-1.1c0-0.6,1-13.7,7.9-19.4c0.4-0.4,1.1-0.3,1.4,0.1
	c0.4,0.4,0.3,1.1-0.1,1.4c-6.3,5.2-7.2,17.9-7.2,18C63.2,42.5,62.8,42.9,62.3,42.9z"/>
<path d="M64.1,33.6c-0.5,0-1-0.4-1-0.9c-0.1-1.6-0.6-4.3-1.7-5.1c-0.4-0.3-0.6-0.9-0.2-1.4c0.3-0.4,0.9-0.6,1.4-0.2
	c2.2,1.6,2.5,6.1,2.6,6.6C65.2,33.1,64.7,33.5,64.1,33.6C64.2,33.6,64.2,33.6,64.1,33.6z"/>
<path d="M69,27.4c-0.3,0-0.6-0.1-0.9-0.2c-0.3-0.1-0.9-0.5-1-1.5c-0.6-0.6-1.7-2.1-1.2-3.8c0.6-2.2,3.4-3.8,8.5-4.8
	c1.9-0.4,4.2-0.6,5,0.8c0.6,1,0.1,2.3-1.4,4C76.1,24,71.6,27.4,69,27.4z M69.1,25.6L69.1,25.6L69.1,25.6z M76.8,18.8
	c-0.4,0-1.1,0.1-2.1,0.2c-5.8,1.1-6.8,2.7-7,3.3c-0.3,1,0.9,2.1,0.9,2.1l0.4,0.3l0,0.5c0,0,0,0,0,0c0.7,0,2.8-0.9,5.4-3
	c2.2-1.8,3-3.1,3.1-3.5C77.5,18.9,77.3,18.8,76.8,18.8z"/>
<path d="M62.5,30.6c-2.2,0-5.7-2.8-6.9-4.2c-0.4-0.5-1.8-2-1-3.2c0.7-1.2,2.5-1,4-0.7c3.9,0.8,6.1,2,6.5,3.8
	c0.3,1.2-0.3,2.3-0.9,3c-0.1,0.6-0.4,1-0.9,1.2C63,30.5,62.7,30.6,62.5,30.6z M56.4,24.2c0.3,0.4,0.9,1.3,2.3,2.4
	c1.5,1.2,2.7,1.8,3.4,1.9l0-0.1l0.4-0.4c0.2-0.2,0.8-0.8,0.6-1.3c-0.1-0.3-0.7-1.5-5-2.3C57.2,24.2,56.7,24.2,56.4,24.2z"/>
</svg>
