<?xml version="1.0" encoding="utf-8"?>
<!-- Generator: Adobe Illustrator 22.0.0, SVG Export Plug-In . SVG Version: 6.00 Build 0)  -->
<svg version="1.0" id="svg_2px" xmlns="http://www.w3.org/2000/svg" xmlns:xlink="http://www.w3.org/1999/xlink" x="0px" y="0px"
	 viewBox="0 0 96 96" style="enable-background:new 0 0 96 96;" xml:space="preserve">
<path fill="currentColor" d="M48,89.9c-4.9,0-35.4-16.7-35.4-55.6V16.6c0-0.6,0.4-1,1-1c11.3,0,20.5-1.5,33.9-9.4c0.3-0.2,0.7-0.2,1,0
	c13.4,7.8,22.6,9.4,33.9,9.4c0.6,0,1,0.4,1,1v17.8C83.4,73.2,52.9,89.9,48,89.9z M14.6,17.5v16.8c0,19.8,8.3,33.2,15.2,40.9
	c8,8.9,16.3,12.7,18.2,12.7s10.2-3.8,18.2-12.7c6.9-7.7,15.2-21,15.2-40.9V17.5C70.3,17.5,61.1,15.8,48,8.2
	C34.9,15.8,25.7,17.5,14.6,17.5z"/>
<path fill="currentColor" d="M48,81.4c-0.1,0-0.3,0-0.4-0.1C40.2,78,20.9,63.1,20.9,34.4v-9.8c0-0.5,0.4-1,0.9-1c8.9-0.8,16.9-3.2,25.7-7.9
	c0.3-0.2,0.6-0.2,0.9,0c8.9,4.6,16.8,7.1,25.7,7.9c0.5,0,0.9,0.5,0.9,1v9.8c0,28.8-19.3,43.6-26.7,46.9C48.3,81.3,48.1,81.4,48,81.4
	z M22.9,25.4v8.9c0,27.2,17.7,41.4,25.1,44.9c7.4-3.5,25.1-17.7,25.1-44.9v-8.9c-8.7-0.9-16.5-3.3-25.1-7.8
	C39.4,22.1,31.6,24.6,22.9,25.4z"/>
<path fill="currentColor" d="M67.3,63.1h-2V30.9h-4.6v22.5c0,0.7-0.4,1.4-1.1,1.7c-0.7,0.3-1.4,0.2-2-0.3l-6.5-5.4v4.1c0,0.7-0.4,1.3-1,1.7
	c-0.6,0.3-1.4,0.3-1.9-0.2l-7.8-5.7v4.3c0,0.7-0.4,1.3-1,1.7c-0.6,0.3-1.4,0.3-1.9-0.2l-7.9-5.8v11.8h-2V49.1c0-0.7,0.4-1.3,1-1.7
	c0.6-0.3,1.4-0.3,1.9,0.2l7.9,5.8v-4.3c0-0.7,0.4-1.3,1-1.7c0.6-0.3,1.4-0.3,1.9,0.2l7.8,5.7v-4.1c0-0.7,0.4-1.4,1.1-1.7
	c0.7-0.3,1.4-0.2,2,0.3l6.5,5.4V30.8c0-1,0.8-1.9,1.9-1.9h4.9c1,0,1.9,0.8,1.9,1.9V63.1z"/>
</svg>
