<svg id="blue_svg_2px" data-name="blue_svg 2px" xmlns="http://www.w3.org/2000/svg" viewBox="0 0 96 96">
  <defs>
    <style>.cls-1{fill:#00008f;}</style>
  </defs>
  <title>contract</title>
  <path class="cls-1"
        d="M30,82.84H66a4.51,4.51,0,0,0,4.49-4.49V24.47s0,0,0-.06a1,1,0,0,0-.05-.26l0-.1a1,1,0,0,0-.17-.26l0,0h0L59.71,13.45h0a1,1,0,0,0-.28-.19l-.09,0a1,1,0,0,0-.26-.05H30a4.51,4.51,0,0,0-4.49,4.49v60.7A4.51,4.51,0,0,0,30,82.84ZM60,16.54l7,6.92H60.87a.84.84,0,0,1-.61-.24.86.86,0,0,1-.26-.61ZM27.51,17.65A2.51,2.51,0,0,1,30,15.16H58v7.5a2.86,2.86,0,0,0,2.84,2.81h7.65V78.35A2.51,2.51,0,0,1,66,80.84H30a2.51,2.51,0,0,1-2.49-2.49Z"/>
  <path class="cls-1"
        d="M63.41,68.46l-5.64,7a.23.23,0,0,1-.27,0l-2.83-3.65A1,1,0,0,0,53.09,73l2.84,3.66a2.18,2.18,0,0,0,1.47.82h.26a2.21,2.21,0,0,0,1.72-.83l5.6-7a1,1,0,1,0-1.56-1.25Z"/>
  <path class="cls-1" d="M31.5,24.07H46.12a1,1,0,0,0,0-2H31.5a1,1,0,0,0,0,2Z"/>
  <path class="cls-1" d="M50.6,30.36H65.22a1,1,0,0,0,0-2H50.6a1,1,0,0,0,0,2Z"/>
  <path class="cls-1" d="M30.78,44.59H65.22a1,1,0,0,0,0-2H30.78a1,1,0,0,0,0,2Z"/>
  <path class="cls-1" d="M30.78,49H65.22a1,1,0,0,0,0-2H30.78a1,1,0,0,0,0,2Z"/>
  <path class="cls-1" d="M30.78,53.89H65.22a1,1,0,0,0,0-2H30.78a1,1,0,0,0,0,2Z"/>
</svg>
