<?xml version="1.0" encoding="utf-8"?>
<!-- Generator: Adobe Illustrator 22.0.0, SVG Export Plug-In . SVG Version: 6.00 Build 0)  -->
<svg version="1.0" id="svg_2px" xmlns="http://www.w3.org/2000/svg" xmlns:xlink="http://www.w3.org/1999/xlink" x="0px" y="0px"
	 viewBox="0 0 96 96" style="enable-background:new 0 0 96 96;" xml:space="preserve">
<path fill="currentColor" d="M48,90L5.7,31.1L20.6,6.8h54.7l14.9,24.3L48,90z M8.1,31L48,86.5L87.9,31L74.2,8.8H21.8L8.1,31z"/>
<path fill="currentColor" d="M48,87.1c-0.5,0-0.9-0.3-1-0.8L34,31.2c-0.1-0.3,0-0.6,0.2-0.9c0.2-0.2,0.5-0.4,0.8-0.4h26.1
	c0.3,0,0.6,0.1,0.8,0.4c0.2,0.2,0.3,0.6,0.2,0.9L49,86.3C48.9,86.7,48.5,87.1,48,87.1z M36.2,32L48,81.7L59.8,32H36.2z"/>
<path fill="currentColor" d="M35.7,32H7.1v-2h28.5V32z"/>
<path fill="currentColor" d="M89.1,32H60.3v-2h28.7V32z"/>
<path fill="currentColor" d="M62.8,32H33.2L48,7.3L62.8,32z M36.7,30h22.6L48,11.2L36.7,30z"/>
<path fill="currentColor" d="M34.1,31.5l-13.7-23l1.7-1l13.7,23L34.1,31.5z"/>
<path fill="currentColor" d="M61.9,31.5l-1.7-1L74,7.5l1.7,1L61.9,31.5z"/>
</svg>
